<svg width="16" height="16" viewBox="0 0 16 16" fill="none" xmlns="http://www.w3.org/2000/svg">
<path d="M12.6666 2.66666H3.33325C2.80282 2.66666 2.29411 2.87738 1.91904 3.25245C1.54397 3.62752 1.33325 4.13623 1.33325 4.66666V11.3333C1.33325 11.8638 1.54397 12.3725 1.91904 12.7475C2.29411 13.1226 2.80282 13.3333 3.33325 13.3333H12.6666C13.197 13.3333 13.7057 13.1226 14.0808 12.7475C14.4559 12.3725 14.6666 11.8638 14.6666 11.3333V4.66666C14.6666 4.13623 14.4559 3.62752 14.0808 3.25245C13.7057 2.87738 13.197 2.66666 12.6666 2.66666ZM3.33325 4H12.6666C12.8434 4 13.013 4.07024 13.138 4.19526C13.263 4.32028 13.3333 4.48985 13.3333 4.66666L7.99992 7.92L2.66659 4.66666C2.66659 4.48985 2.73682 4.32028 2.86185 4.19526C2.98687 4.07024 3.15644 4 3.33325 4ZM13.3333 11.3333C13.3333 11.5101 13.263 11.6797 13.138 11.8047C13.013 11.9298 12.8434 12 12.6666 12H3.33325C3.15644 12 2.98687 11.9298 2.86185 11.8047C2.73682 11.6797 2.66659 11.5101 2.66659 11.3333V6.18666L7.65325 9.23333C7.7546 9.29184 7.86956 9.32265 7.98659 9.32265C8.10361 9.32265 8.21857 9.29184 8.31992 9.23333L13.3333 6.18666V11.3333Z" fill="white"/>
</svg>
