<svg width="16" height="16" viewBox="0 0 16 16" fill="none" xmlns="http://www.w3.org/2000/svg">
<path d="M13.6466 6C13.7785 6 13.9074 5.9609 14.017 5.88764C14.1267 5.81439 14.2121 5.71027 14.2626 5.58845C14.313 5.46664 14.3262 5.33259 14.3005 5.20327C14.2748 5.07395 14.2113 4.95516 14.118 4.86193C14.0248 4.76869 13.906 4.7052 13.7767 4.67947C13.6474 4.65375 13.5133 4.66695 13.3915 4.71741C13.2697 4.76787 13.1656 4.85332 13.0923 4.96295C13.0191 5.07258 12.98 5.20148 12.98 5.33333C12.98 5.51014 13.0502 5.67971 13.1752 5.80474C13.3003 5.92976 13.4698 6 13.6466 6ZM11.6466 6C11.7785 6 11.9074 5.9609 12.017 5.88764C12.1267 5.81439 12.2121 5.71027 12.2626 5.58845C12.313 5.46664 12.3262 5.33259 12.3005 5.20327C12.2748 5.07395 12.2113 4.95516 12.118 4.86193C12.0248 4.76869 11.906 4.7052 11.7767 4.67947C11.6474 4.65375 11.5133 4.66695 11.3915 4.71741C11.2697 4.76787 11.1656 4.85332 11.0923 4.96295C11.0191 5.07258 10.98 5.20148 10.98 5.33333C10.98 5.51014 11.0502 5.67971 11.1752 5.80474C11.3003 5.92976 11.4698 6 11.6466 6ZM9.64664 6C9.7785 6 9.90739 5.9609 10.017 5.88764C10.1267 5.81439 10.2121 5.71027 10.2626 5.58845C10.313 5.46664 10.3262 5.33259 10.3005 5.20327C10.2748 5.07395 10.2113 4.95516 10.118 4.86193C10.0248 4.76869 9.90602 4.7052 9.7767 4.67947C9.64738 4.65375 9.51334 4.66695 9.39152 4.71741C9.2697 4.76787 9.16558 4.85332 9.09233 4.96295C9.01908 5.07258 8.97998 5.20148 8.97998 5.33333C8.97998 5.42088 8.99722 5.50757 9.03072 5.58845C9.06423 5.66934 9.11333 5.74283 9.17524 5.80474C9.23714 5.86664 9.31064 5.91575 9.39152 5.94925C9.4724 5.98275 9.5591 6 9.64664 6ZM12.6066 8.66667C12.46 8.66667 12.3066 8.62 12.16 8.58667C11.863 8.52122 11.5711 8.43432 11.2866 8.32667C10.9774 8.21415 10.6374 8.22 10.3322 8.34307C10.027 8.46615 9.77803 8.69776 9.63331 8.99333L9.48664 9.29333C8.83631 8.93055 8.23763 8.4821 7.70664 7.96C7.18709 7.42928 6.73888 6.83316 6.37331 6.18667L6.66664 6C6.96222 5.85528 7.19383 5.60635 7.31691 5.30113C7.43998 4.9959 7.44582 4.65594 7.33331 4.34667C7.22746 4.06161 7.1406 3.76986 7.07331 3.47333C7.03998 3.32 7.01331 3.17333 6.99331 3.02C6.91235 2.55041 6.66639 2.12516 6.29972 1.82082C5.93305 1.51649 5.46977 1.35307 4.99331 1.36H2.99331C2.71147 1.35963 2.43274 1.41883 2.17539 1.53372C1.91803 1.64861 1.68787 1.8166 1.49998 2.02667C1.3091 2.24166 1.16682 2.49529 1.08284 2.77025C0.998857 3.04521 0.975141 3.33504 1.01331 3.62C1.36445 6.41136 2.63489 9.00639 4.62424 10.9957C6.61359 12.9851 9.20861 14.2555 12 14.6067C12.0865 14.6133 12.1734 14.6133 12.26 14.6067C12.7904 14.6067 13.2991 14.396 13.6742 14.0209C14.0493 13.6458 14.26 13.1371 14.26 12.6067V10.6067C14.2531 10.1415 14.0842 9.69326 13.7824 9.33916C13.4806 8.98507 13.0648 8.74726 12.6066 8.66667ZM12.9333 12.6667C12.9344 12.7633 12.9145 12.859 12.8749 12.9472C12.8353 13.0354 12.7771 13.1139 12.7041 13.1773C12.6312 13.2407 12.5454 13.2875 12.4526 13.3144C12.3597 13.3414 12.2622 13.3478 12.1666 13.3333C9.67741 13.0085 7.36471 11.8721 5.58664 10.1C3.80998 8.3099 2.67547 5.98229 2.35998 3.48C2.34549 3.38222 2.35293 3.28245 2.38176 3.1879C2.41058 3.09335 2.46007 3.0064 2.52664 2.93333C2.58837 2.86306 2.6642 2.80656 2.74919 2.7675C2.83418 2.72845 2.92645 2.70772 3.01998 2.70667H5.01998C5.17501 2.70322 5.32639 2.75392 5.44807 2.85005C5.56975 2.94617 5.65412 3.08171 5.68664 3.23333C5.71331 3.41555 5.74664 3.59555 5.78664 3.77333C5.86366 4.12476 5.96615 4.47012 6.09331 4.80667L5.15998 5.24C5.08017 5.27661 5.00839 5.32863 4.94875 5.39306C4.8891 5.4575 4.84278 5.53307 4.81242 5.61546C4.78207 5.69785 4.76829 5.78542 4.77187 5.87315C4.77546 5.96087 4.79634 6.04703 4.83331 6.12667C5.79278 8.18184 7.44481 9.83387 9.49998 10.7933C9.66228 10.86 9.84434 10.86 10.0066 10.7933C10.1721 10.7318 10.3063 10.6071 10.38 10.4467L10.8 9.51333C11.1446 9.63658 11.4964 9.73899 11.8533 9.82C12.0266 9.86 12.2133 9.89333 12.3933 9.92C12.5437 9.95387 12.6777 10.0388 12.7725 10.1604C12.8673 10.2819 12.9171 10.4326 12.9133 10.5867L12.9333 12.6667Z" fill="white"/>
</svg>
