<svg width="16" height="16" viewBox="0 0 16 16" fill="none" xmlns="http://www.w3.org/2000/svg">
<path d="M8.00008 7.2C8.26379 7.2 8.52158 7.1218 8.74084 6.97529C8.96011 6.82878 9.131 6.62055 9.23192 6.37691C9.33284 6.13328 9.35924 5.86519 9.3078 5.60655C9.25635 5.3479 9.12936 5.11033 8.94289 4.92386C8.75642 4.73739 8.51884 4.6104 8.2602 4.55895C8.00156 4.50751 7.73347 4.53391 7.48984 4.63483C7.2462 4.73574 7.03796 4.90664 6.89146 5.12591C6.74495 5.34517 6.66675 5.60296 6.66675 5.86667C6.66675 6.22029 6.80722 6.55943 7.05727 6.80948C7.30732 7.05952 7.64646 7.2 8.00008 7.2ZM7.52675 11.8067C7.58872 11.8692 7.66246 11.9187 7.7437 11.9526C7.82494 11.9864 7.91207 12.0039 8.00008 12.0039C8.08809 12.0039 8.17523 11.9864 8.25647 11.9526C8.33771 11.9187 8.41144 11.8692 8.47341 11.8067L11.2001 9.07333C11.8334 8.44036 12.2647 7.63379 12.4396 6.75564C12.6145 5.87749 12.5249 4.9672 12.1824 4.13993C11.8399 3.31265 11.2597 2.60554 10.5152 2.10804C9.77075 1.61054 8.89547 1.34499 8.00008 1.34499C7.10469 1.34499 6.22941 1.61054 5.48495 2.10804C4.7405 2.60554 4.1603 3.31265 3.81776 4.13993C3.47522 4.9672 3.38571 5.87749 3.56057 6.75564C3.73542 7.63379 4.16678 8.44036 4.80008 9.07333L7.52675 11.8067ZM4.82008 5.56C4.86563 5.08468 5.01676 4.62553 5.26243 4.21608C5.5081 3.80662 5.84211 3.45721 6.24008 3.19333C6.76288 2.85007 7.37466 2.66717 8.00008 2.66717C8.62551 2.66717 9.23728 2.85007 9.76008 3.19333C10.1554 3.4563 10.4875 3.8036 10.7326 4.21026C10.9776 4.61691 11.1295 5.07282 11.1773 5.54519C11.2251 6.01756 11.1677 6.49466 11.0091 6.94217C10.8505 7.38968 10.5947 7.79649 10.2601 8.13333L8.00008 10.3933L5.74008 8.13333C5.4051 7.79976 5.1487 7.39569 4.98955 6.95053C4.8304 6.50538 4.77251 6.03035 4.82008 5.56ZM12.6667 13.3333H3.33341C3.1566 13.3333 2.98703 13.4036 2.86201 13.5286C2.73699 13.6536 2.66675 13.8232 2.66675 14C2.66675 14.1768 2.73699 14.3464 2.86201 14.4714C2.98703 14.5964 3.1566 14.6667 3.33341 14.6667H12.6667C12.8436 14.6667 13.0131 14.5964 13.1382 14.4714C13.2632 14.3464 13.3334 14.1768 13.3334 14C13.3334 13.8232 13.2632 13.6536 13.1382 13.5286C13.0131 13.4036 12.8436 13.3333 12.6667 13.3333Z" fill="white"/>
</svg>
