<svg width="22" height="16" viewBox="0 0 22 16" fill="none" xmlns="http://www.w3.org/2000/svg">
<path d="M20.9201 7.60002C18.9001 2.91002 15.1001 1.52588e-05 11.0001 1.52588e-05C6.90007 1.52588e-05 3.10007 2.91002 1.08007 7.60002C1.025 7.72618 0.996582 7.86236 0.996582 8.00002C0.996582 8.13767 1.025 8.27385 1.08007 8.40001C3.10007 13.09 6.90007 16 11.0001 16C15.1001 16 18.9001 13.09 20.9201 8.40001C20.9751 8.27385 21.0036 8.13767 21.0036 8.00002C21.0036 7.86236 20.9751 7.72618 20.9201 7.60002ZM11.0001 14C7.83007 14 4.83007 11.71 3.10007 8.00002C4.83007 4.29002 7.83007 2.00002 11.0001 2.00002C14.1701 2.00002 17.1701 4.29002 18.9001 8.00002C17.1701 11.71 14.1701 14 11.0001 14ZM11.0001 4.00002C10.2089 4.00002 9.43558 4.23461 8.77779 4.67414C8.11999 5.11366 7.6073 5.73838 7.30455 6.46928C7.0018 7.20019 6.92258 8.00445 7.07693 8.78038C7.23127 9.5563 7.61223 10.269 8.17164 10.8284C8.73105 11.3879 9.44378 11.7688 10.2197 11.9232C10.9956 12.0775 11.7999 11.9983 12.5308 11.6955C13.2617 11.3928 13.8864 10.8801 14.3259 10.2223C14.7655 9.5645 15.0001 8.79114 15.0001 8.00002C15.0001 6.93915 14.5786 5.92173 13.8285 5.17159C13.0783 4.42144 12.0609 4.00002 11.0001 4.00002ZM11.0001 10C10.6045 10 10.2178 9.88272 9.88893 9.66295C9.56003 9.44319 9.30368 9.13083 9.15231 8.76538C9.00093 8.39993 8.96133 7.9978 9.0385 7.60983C9.11567 7.22187 9.30615 6.86551 9.58585 6.5858C9.86556 6.3061 10.2219 6.11561 10.6099 6.03844C10.9978 5.96127 11.4 6.00088 11.7654 6.15226C12.1309 6.30363 12.4432 6.55998 12.663 6.88888C12.8828 7.21777 13.0001 7.60445 13.0001 8.00002C13.0001 8.53045 12.7894 9.03916 12.4143 9.41423C12.0392 9.7893 11.5305 10 11.0001 10Z" fill="white"/>
</svg>
