<svg width="16" height="21" viewBox="0 0 16 21" fill="none" xmlns="http://www.w3.org/2000/svg">
<path d="M15.87 6.60001C15.7955 6.42873 15.6745 6.28174 15.5207 6.1757C15.367 6.06965 15.1866 6.00879 15 6.00001H10.42L11.69 1.26001C11.7304 1.11169 11.7362 0.956036 11.7067 0.805148C11.6772 0.654261 11.6133 0.512203 11.52 0.390014C11.4268 0.269 11.3072 0.170929 11.1703 0.103326C11.0333 0.035722 10.8827 0.000381356 10.73 1.42758e-05H3.73C3.50424 -0.00771896 3.28251 0.061214 3.10092 0.195586C2.91934 0.329958 2.7886 0.521852 2.73 0.740014L0.0499995 10.74C0.00955166 10.8883 0.00384791 11.044 0.0333317 11.1949C0.0628154 11.3458 0.126692 11.4878 0.219999 11.61C0.314184 11.7324 0.435425 11.8313 0.57422 11.8989C0.713015 11.9666 0.865594 12.0012 1.02 12H4.89L3.08 18.74C3.0207 18.9574 3.03652 19.1883 3.1249 19.3956C3.21329 19.6028 3.36905 19.7741 3.56696 19.8817C3.76487 19.9894 3.99332 20.027 4.2153 19.9886C4.43728 19.9502 4.63979 19.8379 4.79 19.67L15.69 7.67001C15.8198 7.5279 15.9058 7.35135 15.9377 7.16155C15.9697 6.97175 15.9461 6.77677 15.87 6.60001ZM6.08 15.28L7.15 11.28C7.19045 11.1317 7.19615 10.976 7.16667 10.8251C7.13718 10.6743 7.07331 10.5322 6.98 10.41C6.88684 10.289 6.7672 10.1909 6.63026 10.1233C6.49332 10.0557 6.34272 10.0204 6.19 10.02H2.35L4.49 2.00001H9.42L8.15 6.74001C8.10923 6.89107 8.10447 7.04959 8.1361 7.20282C8.16774 7.35605 8.23489 7.49971 8.33216 7.62227C8.42942 7.74482 8.55409 7.84285 8.69613 7.90845C8.83817 7.97406 8.99363 8.00542 9.15 8.00001H12.72L6.08 15.28Z" fill="white"/>
</svg>
