<svg width="20" height="20" viewBox="0 0 20 20" fill="none" xmlns="http://www.w3.org/2000/svg">
<path d="M5.5 8.00002H6.5C6.76522 8.00002 7.01957 7.89466 7.20711 7.70712C7.39464 7.51959 7.5 7.26523 7.5 7.00002C7.5 6.7348 7.39464 6.48044 7.20711 6.29291C7.01957 6.10537 6.76522 6.00002 6.5 6.00002H5.5C5.23478 6.00002 4.98043 6.10537 4.79289 6.29291C4.60536 6.48044 4.5 6.7348 4.5 7.00002C4.5 7.26523 4.60536 7.51959 4.79289 7.70712C4.98043 7.89466 5.23478 8.00002 5.5 8.00002ZM9.5 14H5.5C5.23478 14 4.98043 14.1054 4.79289 14.2929C4.60536 14.4804 4.5 14.7348 4.5 15C4.5 15.2652 4.60536 15.5196 4.79289 15.7071C4.98043 15.8947 5.23478 16 5.5 16H9.5C9.76522 16 10.0196 15.8947 10.2071 15.7071C10.3946 15.5196 10.5 15.2652 10.5 15C10.5 14.7348 10.3946 14.4804 10.2071 14.2929C10.0196 14.1054 9.76522 14 9.5 14ZM9.5 10H5.5C5.23478 10 4.98043 10.1054 4.79289 10.2929C4.60536 10.4804 4.5 10.7348 4.5 11C4.5 11.2652 4.60536 11.5196 4.79289 11.7071C4.98043 11.8947 5.23478 12 5.5 12H9.5C9.76522 12 10.0196 11.8947 10.2071 11.7071C10.3946 11.5196 10.5 11.2652 10.5 11C10.5 10.7348 10.3946 10.4804 10.2071 10.2929C10.0196 10.1054 9.76522 10 9.5 10ZM16.42 7.38002C16.4966 7.1979 16.5175 6.99719 16.4801 6.8032C16.4428 6.60921 16.3488 6.43064 16.21 6.29002L10.21 0.290015C10.1273 0.212231 10.0328 0.148096 9.93 0.100015C9.90015 0.0957754 9.86985 0.0957754 9.84 0.100015L9.56 1.52588e-05H3.5C2.70435 1.52588e-05 1.94129 0.316086 1.37868 0.878695C0.816071 1.4413 0.5 2.20437 0.5 3.00002V17C0.5 17.7957 0.816071 18.5587 1.37868 19.1213C1.94129 19.6839 2.70435 20 3.5 20H9.5C9.76522 20 10.0196 19.8947 10.2071 19.7071C10.3946 19.5196 10.5 19.2652 10.5 19C10.5 18.7348 10.3946 18.4804 10.2071 18.2929C10.0196 18.1054 9.76522 18 9.5 18H3.5C3.23478 18 2.98043 17.8947 2.79289 17.7071C2.60536 17.5196 2.5 17.2652 2.5 17V3.00002C2.5 2.7348 2.60536 2.48045 2.79289 2.29291C2.98043 2.10537 3.23478 2.00002 3.5 2.00002H8.5V5.00002C8.5 5.79566 8.81607 6.55873 9.37868 7.12134C9.94129 7.68395 10.7044 8.00002 11.5 8.00002H15.5C15.6974 7.99903 15.8901 7.93963 16.0539 7.82929C16.2176 7.71896 16.345 7.56263 16.42 7.38002ZM11.5 6.00002C11.2348 6.00002 10.9804 5.89466 10.7929 5.70712C10.6054 5.51959 10.5 5.26523 10.5 5.00002V3.41002L13.09 6.00002H11.5ZM18.5 10H13.5C13.2348 10 12.9804 10.1054 12.7929 10.2929C12.6054 10.4804 12.5 10.7348 12.5 11V19C12.5005 19.1809 12.55 19.3583 12.6434 19.5133C12.7367 19.6682 12.8703 19.795 13.03 19.88C13.1864 19.9603 13.3611 19.998 13.5367 19.9892C13.7123 19.9804 13.8824 19.9255 14.03 19.83L16 18.53L18 19.83C18.1494 19.9164 18.3186 19.9627 18.4912 19.9643C18.6637 19.9659 18.8338 19.9229 18.9848 19.8393C19.1358 19.7558 19.2626 19.6346 19.3529 19.4875C19.4432 19.3404 19.4938 19.1725 19.5 19V11C19.5 10.7348 19.3946 10.4804 19.2071 10.2929C19.0196 10.1054 18.7652 10 18.5 10ZM17.5 17.12L16.56 16.49C16.3946 16.3782 16.1996 16.3185 16 16.3185C15.8004 16.3185 15.6054 16.3782 15.44 16.49L14.5 17.12V12H17.5V17.12Z" fill="white"/>
</svg>
